<svg width="20" height="20" viewBox="0 0 20 20" fill="none" xmlns="http://www.w3.org/2000/svg">
<path d="M10 20C15.5228 20 20 15.5228 20 10C20 4.47715 15.5228 0 10 0C4.47715 0 0 4.47715 0 10C0 15.5228 4.47715 20 10 20Z" fill="white"/>
<path d="M5.66302 9.30684L5.16797 8.92664L8.41153 4.7207L11.5719 7.77813L14.5699 5.38209L14.9581 5.86922L11.5323 8.60981L8.47886 5.65536L5.66302 9.30684Z" fill="#CED5E0"/>
<path d="M1.71875 15.6079C3.51677 18.2574 6.55439 20 9.99994 20C13.4455 20 16.4831 18.2574 18.2811 15.6079H1.71875Z" fill="white"/>
<path d="M15.6362 15.2633H13.6838C13.6362 15.2633 13.6006 15.2277 13.6006 15.1802V8.10294C13.6006 8.05542 13.6362 8.01978 13.6838 8.01978H15.6362C15.6838 8.01978 15.7194 8.05542 15.7194 8.10294V15.1802C15.7194 15.2237 15.6838 15.2633 15.6362 15.2633Z" fill="black"/>
<path d="M12.5308 15.2635H10.5783C10.5308 15.2635 10.4951 15.2278 10.4951 15.1803V10.1823C10.4951 10.1348 10.5308 10.0991 10.5783 10.0991H12.5308C12.5783 10.0991 12.6139 10.1348 12.6139 10.1823V15.1803C12.61 15.2239 12.5743 15.2635 12.5308 15.2635Z" fill="black"/>
<path d="M9.42139 15.2634H7.46891C7.42139 15.2634 7.38574 15.2278 7.38574 15.1802V7.65153C7.38574 7.604 7.42139 7.56836 7.46891 7.56836H9.42139C9.46891 7.56836 9.50455 7.604 9.50455 7.65153V15.1802C9.50455 15.2238 9.46891 15.2634 9.42139 15.2634Z" fill="black"/>
<path d="M6.31689 15.2635H4.36442C4.31689 15.2635 4.28125 15.2278 4.28125 15.1803V11.4694C4.28125 11.4219 4.31689 11.3862 4.36442 11.3862H6.31689C6.36442 11.3862 6.40006 11.4219 6.40006 11.4694V15.1803C6.40006 15.2239 6.36046 15.2635 6.31689 15.2635Z" fill="black"/>
<path d="M17.0964 14.9307H2.90234V15.6079H17.0964V14.9307Z" fill="#CED5E0"/>
<path d="M14.764 6.79209C15.407 6.79209 15.9283 6.27079 15.9283 5.62774C15.9283 4.98468 15.407 4.46338 14.764 4.46338C14.1209 4.46338 13.5996 4.98468 13.5996 5.62774C13.5996 6.27079 14.1209 6.79209 14.764 6.79209Z" fill="#E6E9EE"/>
<path d="M14.7641 6.30489C15.1382 6.30489 15.4414 6.00169 15.4414 5.62767C15.4414 5.25364 15.1382 4.95044 14.7641 4.95044C14.3901 4.95044 14.0869 5.25364 14.0869 5.62767C14.0869 6.00169 14.3901 6.30489 14.7641 6.30489Z" fill="black"/>
<path d="M11.553 9.24351C12.1961 9.24351 12.7174 8.72221 12.7174 8.07915C12.7174 7.4361 12.1961 6.91479 11.553 6.91479C10.91 6.91479 10.3887 7.4361 10.3887 8.07915C10.3887 8.72221 10.91 9.24351 11.553 9.24351Z" fill="#E6E9EE"/>
<path d="M11.5522 8.75631C11.9263 8.75631 12.2295 8.45311 12.2295 8.07908C12.2295 7.70506 11.9263 7.40186 11.5522 7.40186C11.1782 7.40186 10.875 7.70506 10.875 8.07908C10.875 8.45311 11.1782 8.75631 11.5522 8.75631Z" fill="black"/>
<path d="M8.44756 6.35239C9.09062 6.35239 9.61192 5.83109 9.61192 5.18804C9.61192 4.54498 9.09062 4.02368 8.44756 4.02368C7.8045 4.02368 7.2832 4.54498 7.2832 5.18804C7.2832 5.83109 7.8045 6.35239 8.44756 6.35239Z" fill="#E6E9EE"/>
<path d="M8.44774 5.8652C8.82176 5.8652 9.12496 5.56199 9.12496 5.18797C9.12496 4.81395 8.82176 4.51074 8.44774 4.51074C8.07371 4.51074 7.77051 4.81395 7.77051 5.18797C7.77051 5.56199 8.07371 5.8652 8.44774 5.8652Z" fill="black"/>
<path d="M5.33818 10.2813C5.98124 10.2813 6.50254 9.76005 6.50254 9.11699C6.50254 8.47394 5.98124 7.95264 5.33818 7.95264C4.69513 7.95264 4.17383 8.47394 4.17383 9.11699C4.17383 9.76005 4.69513 10.2813 5.33818 10.2813Z" fill="#E6E9EE"/>
<path d="M5.33836 9.79391C5.71238 9.79391 6.01559 9.4907 6.01559 9.11668C6.01559 8.74266 5.71238 8.43945 5.33836 8.43945C4.96434 8.43945 4.66113 8.74266 4.66113 9.11668C4.66113 9.4907 4.96434 9.79391 5.33836 9.79391Z" fill="black"/>
</svg>
