<svg width="20" height="21" viewBox="0 0 20 21" fill="none" xmlns="http://www.w3.org/2000/svg">
<path d="M4.47997 0.691L19.0401 0.691C19.4657 0.691 19.8105 1.04509 19.8105 1.48212L19.8105 16.4328C19.8105 16.8698 19.4657 17.2239 19.0401 17.2239L4.47997 17.2239C4.05437 17.2239 3.70954 16.8694 3.70954 16.4328L3.70954 1.48212C3.70954 1.04543 4.05437 0.691 4.47997 0.691ZM18.2697 2.27357L5.25074 2.27357L5.25074 15.6416L18.2697 15.6416V2.27357Z" fill="white"/>
<path d="M1.18115 4.18675L2.74542 4.18675C3.17103 4.18675 3.51586 4.54118 3.51586 4.97787C3.51586 5.4149 3.17103 5.76899 2.74542 5.76899H1.95158L1.95158 19.1374H14.9708V18.2573C14.9708 17.8202 15.3157 17.4661 15.7413 17.4661C16.1669 17.4661 16.5117 17.8206 16.5117 18.2573V19.9289C16.5117 20.3655 16.1669 20.72 15.7413 20.72L1.18115 20.72C0.755545 20.72 0.410711 20.3655 0.410711 19.9289L0.410711 4.97787C0.410711 4.54118 0.755545 4.18675 1.18115 4.18675Z" fill="white"/>
</svg>
