<svg width="20" height="21" viewBox="0 0 20 21" fill="none" xmlns="http://www.w3.org/2000/svg">
<path d="M18.411 1.79268C17.6997 1.05822 16.8428 0.690918 15.8409 0.690918H3.71565C2.71373 0.690918 1.85683 1.05822 1.1453 1.79268C0.433893 2.52727 0.078125 3.4119 0.078125 4.44634V16.9644C0.078125 17.9988 0.433893 18.8835 1.1453 19.6181C1.85683 20.3527 2.71373 20.72 3.71565 20.72H15.8408C16.8427 20.72 17.6996 20.3527 18.4108 19.6181C19.1224 18.8835 19.4781 17.9988 19.4781 16.9644V4.44634C19.4781 3.4119 19.1223 2.52714 18.411 1.79268ZM17.2175 8.78843L12.7718 13.3786C12.6116 13.5437 12.4224 13.6262 12.2034 13.6265C12.1026 13.6265 12.0012 13.6046 11.9003 13.5612C11.5633 13.4133 11.395 13.157 11.395 12.7919V10.7055C10.2162 10.7055 9.27296 10.8075 8.56576 11.0119C7.85852 11.2162 7.31124 11.5443 6.92384 11.9963C6.03124 13.031 5.77019 15.0866 6.14069 18.1642C6.16599 18.3727 6.08596 18.5162 5.90065 18.5943C5.85017 18.6206 5.79545 18.6334 5.73657 18.6334C5.61013 18.6334 5.50493 18.5811 5.42075 18.4768C4.01462 16.5383 3.31149 14.7821 3.31149 13.2088C3.31149 12.6871 3.33268 12.2069 3.37471 11.7677C3.41673 11.3291 3.50724 10.844 3.64615 10.314C3.78506 9.78363 3.97233 9.30987 4.20812 8.89256C4.44391 8.47548 4.76606 8.0605 5.17447 7.64739C5.58275 7.23428 6.06278 6.89096 6.61426 6.61716C7.1657 6.3433 7.84985 6.12179 8.66667 5.95212C9.48336 5.78267 10.3928 5.69781 11.395 5.69781V3.61158C11.395 3.24639 11.5633 2.98998 11.9 2.84214C12.2286 2.69462 12.5189 2.75522 12.7717 3.02469L17.2175 7.61478C17.3777 7.77998 17.4576 7.97564 17.4576 8.20167C17.4576 8.42771 17.3777 8.62332 17.2175 8.78843Z" fill="white"/>
</svg>
