<svg width="18" height="16" viewBox="0 0 18 16" fill="none" xmlns="http://www.w3.org/2000/svg">
<path d="M17.6618 15.6632V14.7564C17.6618 14.564 17.5772 14.3826 17.43 14.2605C16.6134 13.5869 15.7341 13.139 15.5539 13.0502C15.5355 13.0391 15.5208 13.0206 15.5208 12.9984V11.7215C15.679 11.6142 15.7856 11.4328 15.7856 11.2255V9.90054C15.7856 9.24174 15.2559 8.70508 14.5974 8.70508H14.4539H14.3105C13.6557 8.70508 13.1222 9.23804 13.1222 9.90054V11.2181C13.1222 11.4254 13.2289 11.6068 13.3871 11.7141V12.9947C13.3871 13.0169 13.3761 13.0391 13.354 13.0465C13.1737 13.1353 12.2945 13.5832 11.4779 14.2568C11.3307 14.3789 11.2461 14.5603 11.2461 14.7527V15.6595" fill="white"/>
<path d="M6.73601 15.6632V14.7564C6.73601 14.564 6.6514 14.3826 6.50425 14.2605C5.68757 13.5869 4.80836 13.139 4.6281 13.0502C4.60971 13.0391 4.59499 13.0206 4.59499 12.9984V11.7215C4.75318 11.6142 4.85986 11.4328 4.85986 11.2255V9.90054C4.85986 9.24174 4.33012 8.70508 3.67163 8.70508H3.52816H3.38469C2.72988 8.70508 2.19646 9.23804 2.19646 9.90054V11.2181C2.19646 11.4254 2.30315 11.6068 2.46133 11.7141V12.9947C2.46133 13.0169 2.45029 13.0391 2.42822 13.0465C2.24796 13.1353 1.36875 13.5832 0.552072 14.2568C0.404923 14.3789 0.320312 14.5603 0.320312 14.7527V15.6595" fill="white"/>
<path d="M9.02436 7.65405C8.84043 7.65405 8.6896 7.8058 8.6896 7.99086V10.1153L6.86127 11.1775C6.70309 11.2701 6.64791 11.4736 6.73987 11.6365C6.80241 11.7438 6.91277 11.803 7.03049 11.803C7.08567 11.803 7.14453 11.7882 7.19604 11.7586L9.02436 10.6964L10.8527 11.7586C10.9042 11.7882 10.9631 11.803 11.0182 11.803C11.1323 11.803 11.2463 11.7438 11.3089 11.6365C11.4008 11.4773 11.3456 11.2701 11.1875 11.1775L9.35913 10.1153V7.99086C9.35545 7.8058 9.2083 7.65405 9.02436 7.65405Z" fill="white"/>
<path d="M7.5961 4.45987C7.25765 4.63752 6.51087 5.05575 5.80824 5.63312C5.58383 5.81818 5.45508 6.09577 5.45508 6.38816V7.29493C5.45508 7.47999 5.60591 7.63174 5.78984 7.63174C5.97378 7.63174 6.12461 7.47999 6.12461 7.29493V6.38816C6.12461 6.29563 6.16507 6.2105 6.23497 6.15128C7.02589 5.49988 7.88304 5.06315 8.0449 4.98173C8.18101 4.91511 8.26562 4.77816 8.26562 4.62642V3.34953C8.26562 3.23849 8.21044 3.13116 8.11847 3.07194C8.0449 3.02383 8.00076 2.9424 8.00076 2.85357V1.52857C8.00076 1.05482 8.38334 0.669905 8.85422 0.669905H9.13748C9.60836 0.669905 9.99095 1.05482 9.99095 1.52857V2.85357C9.99095 2.9424 9.9468 3.02383 9.87323 3.07194C9.78126 3.13486 9.72608 3.23849 9.72608 3.34953V4.63012C9.72608 4.78186 9.81069 4.91881 9.9468 4.98543C10.1123 5.06685 10.9658 5.49988 11.7567 6.15498C11.8266 6.2142 11.8671 6.29933 11.8671 6.39186V7.29864C11.8671 7.48369 12.0179 7.63544 12.2019 7.63544C12.3858 7.63544 12.5366 7.48369 12.5366 7.29864V6.39186C12.5366 6.09947 12.4079 5.82188 12.1835 5.63683C11.4845 5.05945 10.734 4.63752 10.3956 4.46357V3.50867C10.5648 3.33472 10.6605 3.10155 10.6605 2.85728V1.52857C10.6605 0.68471 9.97991 0 9.14116 0H8.8579C8.01915 0 7.33859 0.68471 7.33859 1.52857V2.85357C7.33859 3.10155 7.43423 3.33472 7.60345 3.50497V4.45987H7.5961Z" fill="white"/>
<path d="M3.39178 9.03437H3.67505C4.14592 9.03437 4.52851 9.41929 4.52851 9.89303V11.218C4.52851 11.3069 4.48437 11.3883 4.41079 11.4364C4.31882 11.4993 4.26364 11.603 4.26364 11.714V12.9946C4.26364 13.1463 4.34825 13.2833 4.48437 13.3499C4.64991 13.4313 5.50337 13.8643 6.2943 14.5194C6.36419 14.5787 6.40466 14.6638 6.40466 14.7563V15.6631C6.40466 15.8482 6.55549 15.9999 6.73942 15.9999C6.92336 15.9999 7.07419 15.8482 7.07419 15.6631V14.7563C7.07419 14.4639 6.94543 14.1863 6.72103 14.0013C6.02207 13.4239 5.27161 13.002 4.93317 12.828V11.8731C5.10239 11.6992 5.19804 11.466 5.19804 11.2217V9.89673C5.19804 9.05287 4.51747 8.36816 3.67873 8.36816H3.39546C2.55671 8.36816 1.87615 9.05287 1.87615 9.89673V11.218C1.87615 11.466 1.9718 11.6992 2.14102 11.8694V12.8243C1.80258 13.002 1.05579 13.4202 0.353158 13.9976C0.128755 14.1826 0 14.4602 0 14.7526V15.6594C0 15.8445 0.150828 15.9962 0.334764 15.9962C0.5187 15.9962 0.669528 15.8445 0.669528 15.6594V14.7526C0.669528 14.6601 0.709994 14.575 0.77989 14.5157C1.57082 13.8643 2.42796 13.4276 2.58982 13.3462C2.72594 13.2796 2.81055 13.1426 2.81055 12.9909V11.714C2.81055 11.603 2.75537 11.4956 2.6634 11.4364C2.58982 11.3883 2.54568 11.3069 2.54568 11.218V9.89303C2.53832 9.41929 2.92091 9.03437 3.39178 9.03437Z" fill="white"/>
<path d="M11.2711 13.9976C11.0467 14.1826 10.918 14.4602 10.918 14.7526V15.6594C10.918 15.8445 11.0688 15.9962 11.2527 15.9962C11.4367 15.9962 11.5875 15.8445 11.5875 15.6594V14.7526C11.5875 14.6601 11.628 14.575 11.6979 14.5157C12.4888 13.8643 13.3459 13.4276 13.5078 13.3462C13.6439 13.2796 13.7285 13.1426 13.7285 12.9909V11.714C13.7285 11.603 13.6733 11.4956 13.5814 11.4364C13.5078 11.3883 13.4636 11.3069 13.4636 11.218V9.89303C13.4636 9.41929 13.8462 9.03437 14.3171 9.03437H14.6004C15.0712 9.03437 15.4538 9.41929 15.4538 9.89303V11.218C15.4538 11.3069 15.4097 11.3883 15.3361 11.4364C15.2441 11.4993 15.189 11.603 15.189 11.714V12.9946C15.189 13.1463 15.2736 13.2833 15.4097 13.3499C15.5752 13.4313 16.4287 13.8643 17.2196 14.5194C17.2895 14.5787 17.33 14.6638 17.33 14.7563V15.6631C17.33 15.8482 17.4808 15.9999 17.6648 15.9999C17.8487 15.9999 17.9995 15.8482 17.9995 15.6631V14.7563C17.9995 14.4639 17.8708 14.1863 17.6464 14.0013C16.9474 13.4239 16.1969 13.002 15.8585 12.828V11.8731C16.0277 11.6992 16.1234 11.466 16.1234 11.2217V9.89673C16.1234 9.05287 15.4428 8.36816 14.6041 8.36816H14.3208C13.482 8.36816 12.8015 9.05287 12.8015 9.89673V11.218C12.8015 11.466 12.8971 11.6992 13.0663 11.8694V12.8243C12.7205 13.002 11.9738 13.4202 11.2711 13.9976Z" fill="white"/>
</svg>
